<?xml version="1.0" standalone="no"?>
<!DOCTYPE svg PUBLIC "-//W3C//DTD SVG 20010904//EN"
 "http://www.w3.org/TR/2001/REC-SVG-20010904/DTD/svg10.dtd">
<svg version="1.0" xmlns="http://www.w3.org/2000/svg"
 width="900.000000pt" height="900.000000pt" viewBox="0 0 900.000000 900.000000"
 preserveAspectRatio="xMidYMid meet">

<g transform="translate(0.000000,900.000000) scale(0.100000,-0.100000)"
fill="red" stroke="black">
<path d="M4415 8345 c-35 -11 -155 -35 -335 -66 -30 -6 -86 -17 -125 -24 -132
-27 -340 -66 -380 -71 -22 -3 -85 -16 -140 -29 -55 -14 -138 -29 -185 -35 -85
-11 -145 -21 -230 -42 -48 -12 -88 -19 -220 -42 -47 -8 -105 -19 -130 -24 -25
-6 -67 -16 -94 -22 -26 -6 -75 -13 -107 -17 l-59 -6 0 -38 c0 -44 -5 -43 105
-24 44 8 109 19 144 25 35 6 68 13 75 17 6 4 34 10 61 14 28 4 102 16 165 28
63 12 144 26 178 31 35 6 83 14 105 20 23 5 94 18 157 30 63 11 131 25 151 30
20 6 51 10 68 10 18 0 42 5 53 11 22 12 54 18 234 42 55 8 109 17 120 21 10 3
57 13 104 22 47 8 103 19 125 24 241 47 260 49 344 36 96 -16 82 -13 129 -25
48 -12 144 -31 207 -41 57 -9 258 -43 354 -60 36 -6 69 -14 75 -18 6 -3 34
-10 61 -13 79 -11 237 -39 275 -49 19 -5 80 -16 135 -26 55 -9 132 -22 170
-29 39 -7 113 -21 165 -30 52 -10 118 -23 145 -30 89 -23 178 -38 253 -42 l72
-5 0 31 c0 24 -5 32 -22 35 -13 2 -68 12 -123 21 -55 10 -113 21 -130 26 -16
4 -82 17 -145 29 -63 11 -142 27 -175 34 -57 13 -143 29 -340 63 -49 8 -105
19 -123 25 -18 5 -56 14 -85 18 -29 5 -101 18 -162 30 -60 12 -135 25 -165 30
-61 9 -288 53 -390 75 -36 9 -77 15 -91 15 -15 0 -46 7 -69 15 -50 18 -149 18
-205 0z"/>
<path d="M4380 8064 c-74 -13 -162 -28 -195 -34 -33 -5 -96 -16 -140 -25 -44
-8 -127 -22 -185 -30 -58 -8 -141 -22 -185 -31 -44 -9 -105 -20 -135 -24 -123
-18 -257 -41 -290 -50 -19 -6 -69 -14 -110 -20 -41 -5 -129 -19 -195 -31 -66
-11 -145 -24 -175 -29 -71 -12 -140 -24 -215 -39 -33 -6 -80 -15 -105 -19
l-45 -8 -5 -174 c-7 -250 7 -1253 20 -1455 7 -93 18 -206 25 -250 8 -44 21
-132 30 -195 33 -227 159 -701 235 -885 23 -55 45 -113 49 -130 5 -16 36 -91
70 -165 93 -200 114 -242 138 -279 13 -18 34 -56 48 -85 48 -95 126 -216 261
-403 195 -270 463 -546 761 -786 46 -37 95 -74 110 -84 16 -10 60 -41 98 -69
39 -28 90 -63 115 -78 25 -15 69 -43 99 -61 52 -32 56 -33 88 -20 19 8 53 27
76 43 23 15 83 55 132 88 370 243 724 580 997 949 212 287 413 642 515 910 18
50 40 104 47 120 68 151 184 549 222 760 83 464 92 560 99 1095 4 245 8 495
10 555 2 61 1 221 -2 356 l-6 247 -36 5 c-20 3 -115 20 -211 37 -330 59 -445
78 -515 85 -38 4 -74 10 -80 15 -5 4 -32 10 -60 13 -27 3 -104 15 -170 27
-210 38 -278 50 -350 59 -38 5 -90 14 -115 19 -25 6 -65 13 -90 16 -25 4 -94
16 -155 27 -60 12 -135 25 -165 29 -30 4 -75 13 -100 19 -56 13 -48 14 -210
-15z m597 -319 c322 -23 462 -45 821 -130 153 -36 235 -61 427 -129 110 -39
317 -139 336 -162 13 -16 14 -131 4 -609 -18 -839 -35 -1002 -160 -1513 -37
-154 -186 -589 -214 -627 -4 -5 -25 -50 -46 -100 -45 -109 -170 -345 -229
-435 -24 -36 -49 -75 -55 -88 -20 -38 -168 -239 -260 -352 -100 -123 -384
-410 -490 -495 -133 -107 -187 -149 -277 -213 -164 -115 -288 -192 -312 -192
-57 0 -472 296 -687 490 -246 222 -539 567 -675 797 -14 23 -47 79 -75 125
-86 144 -209 399 -293 608 -43 106 -137 401 -161 506 -126 538 -139 663 -152
1457 -8 461 -8 631 0 641 17 21 204 111 316 152 184 68 269 95 405 129 339 85
533 115 915 144 188 14 632 12 862 -4z"/>
<path d="M4572 7568 c-7 -7 -12 -31 -12 -55 0 -37 -3 -43 -21 -43 -17 0 -20 5
-15 28 4 18 -1 34 -14 51 -26 30 -50 21 -50 -19 0 -29 -2 -30 -43 -30 -41 0
-87 -21 -87 -41 0 -5 20 -19 45 -31 28 -14 45 -28 43 -37 -4 -21 -222 -128
-298 -147 -36 -9 -72 -21 -81 -27 -31 -23 -69 -90 -69 -122 0 -45 20 -59 75
-51 29 5 45 4 45 -3 0 -6 -6 -11 -14 -11 -22 0 -38 -24 -24 -38 17 -17 45 -15
101 5 45 16 51 16 135 -2 48 -10 108 -21 134 -23 71 -6 76 -20 42 -100 -50
-117 -97 -194 -164 -267 -36 -38 -82 -91 -102 -116 -22 -28 -57 -55 -85 -69
-26 -12 -69 -37 -96 -56 -26 -19 -54 -34 -63 -34 -22 0 -139 78 -202 133 -29
26 -67 54 -84 63 -43 22 -100 21 -131 -2 -24 -18 -89 -111 -114 -163 -7 -14
-22 -39 -32 -56 -11 -16 -30 -50 -42 -75 -12 -25 -40 -74 -61 -109 -41 -67
-44 -81 -27 -98 15 -15 3 -33 -20 -33 -13 0 -22 -12 -29 -37 -6 -21 -15 -51
-20 -68 -33 -95 -36 -115 -20 -132 21 -20 50 -13 112 28 61 41 75 68 54 111
-14 30 -13 37 10 102 21 62 62 125 62 97 0 -5 -5 -13 -11 -17 -8 -5 -10 -35
-6 -99 8 -113 11 -123 42 -118 25 5 29 -1 40 -74 7 -47 -7 -58 -31 -25 -13 16
-13 16 -15 -3 -4 -71 21 -207 44 -233 8 -9 35 -57 60 -107 46 -93 86 -145 110
-145 37 0 51 27 55 103 5 88 -4 110 -57 137 -30 15 -41 27 -46 52 -4 18 -16
58 -26 87 -11 30 -24 99 -29 152 -4 54 -11 103 -15 109 -11 17 5 50 25 50 10
0 47 -20 83 -45 36 -24 87 -57 114 -71 26 -15 67 -46 90 -70 26 -25 55 -44 76
-48 37 -7 71 -38 112 -106 69 -110 191 -233 365 -368 147 -114 200 -165 182
-176 -5 -3 -30 15 -55 39 -75 70 -115 98 -133 91 -15 -6 -16 -20 -11 -109 7
-122 22 -169 111 -340 36 -70 66 -136 66 -146 0 -11 -12 -29 -26 -40 -23 -18
-41 -21 -133 -21 -72 0 -101 -3 -91 -10 8 -5 41 -10 73 -10 43 0 58 -3 55 -12
-3 -9 -29 -13 -84 -13 -74 0 -79 1 -82 22 -2 16 -12 24 -35 28 -50 9 -163 9
-261 0 -86 -8 -88 -9 -99 -38 -9 -27 -11 -28 -22 -14 -7 10 -21 17 -31 17 -29
-1 -67 -34 -63 -56 5 -22 94 -70 150 -79 32 -6 40 -3 68 27 29 31 34 33 108
35 43 1 95 4 115 6 53 8 239 -18 342 -47 100 -28 130 -24 147 21 13 34 3 111
-17 130 -16 16 -20 88 -4 78 5 -3 12 -22 16 -41 4 -20 18 -57 31 -82 63 -117
88 -169 95 -190 9 -32 -48 -100 -167 -197 -54 -44 -106 -89 -116 -100 -41 -45
-108 -112 -151 -150 -87 -77 -72 -107 55 -107 111 -1 140 13 147 70 4 35 11
46 38 62 18 11 37 32 43 47 20 53 172 199 248 238 79 40 83 46 83 103 -1 36
-8 64 -25 94 -60 104 -40 163 82 251 172 125 253 221 275 329 10 51 16 63 32
63 16 0 19 -7 18 -45 0 -25 -7 -71 -14 -102 -10 -42 -11 -61 -3 -69 13 -13 42
38 52 90 8 42 28 51 40 18 7 -17 6 -41 -3 -73 -13 -48 -22 -68 -71 -149 -26
-41 -32 -89 -15 -100 6 -3 18 8 28 25 9 17 38 60 64 96 25 35 53 85 62 111 18
52 22 168 6 178 -13 8 -13 35 0 35 21 0 42 -51 42 -101 -1 -28 3 -62 8 -75 14
-36 36 -30 39 11 6 71 4 151 -3 185 l-8 36 61 28 c104 48 174 147 194 276 9
59 8 86 -8 167 -25 134 -17 205 32 292 47 81 64 127 56 147 -9 24 -26 11 -53
-43 -55 -109 -112 -154 -126 -98 -11 43 5 93 52 158 57 79 96 160 88 181 -10
26 -20 19 -52 -33 -36 -57 -127 -151 -147 -151 -22 0 -19 58 6 123 11 30 42
80 67 112 65 80 67 83 60 90 -11 12 -86 -46 -136 -106 -76 -89 -95 -149 -89
-279 3 -60 12 -124 21 -149 44 -119 45 -349 2 -442 -29 -63 -37 -74 -92 -117
-105 -81 -204 -95 -204 -28 0 36 -48 127 -108 205 -57 75 -167 176 -251 232
-138 91 -279 355 -242 453 8 20 16 27 29 23 81 -26 156 -59 184 -81 69 -52 68
-17 0 57 -21 22 -23 27 -9 27 9 0 17 -4 17 -8 0 -4 14 -13 30 -19 40 -15 39 1
-1 35 -49 41 -90 82 -84 82 3 0 46 -16 96 -35 83 -33 92 -35 127 -23 21 7 39
16 40 21 3 9 -3 10 -38 2 -25 -5 -39 0 -82 31 -28 21 -76 50 -107 65 -55 26
-56 27 -28 34 16 4 59 5 96 3 63 -5 68 -4 64 13 -5 16 1 19 30 19 64 0 56 14
-50 85 -20 14 -43 23 -52 20 -10 -3 -22 4 -30 16 -12 20 -11 21 17 17 23 -3
29 -1 24 11 -4 11 -1 13 12 8 10 -4 23 -7 30 -7 7 0 33 -13 57 -30 50 -33 59
-36 59 -16 0 19 -84 102 -157 156 -60 44 -78 70 -49 70 23 0 104 -38 140 -65
43 -33 88 -42 105 -21 11 13 10 17 -5 21 -44 14 -69 32 -89 68 -19 36 -53 67
-99 93 -24 13 -43 41 -34 50 7 7 168 -59 203 -82 11 -8 25 -14 32 -14 18 0 16
27 -3 38 -9 5 -47 40 -85 78 -42 41 -86 75 -111 84 -41 15 -63 40 -35 40 8 0
37 -11 64 -24 52 -26 159 -53 169 -43 11 10 -22 35 -78 60 -88 39 -82 53 21
48 47 -1 92 -8 99 -13 23 -19 22 -2 -1 19 -23 22 -104 53 -137 53 -11 0 -34
15 -52 33 -18 17 -46 42 -63 54 l-30 22 26 1 c15 0 46 -7 70 -16 27 -9 59 -13
84 -10 26 4 50 1 69 -9 55 -29 76 -13 29 21 -31 23 -73 40 -118 49 -17 3 -51
19 -75 35 -25 17 -53 30 -62 30 -10 0 -18 6 -18 14 0 15 42 26 96 26 38 0 42
9 16 33 -14 13 -38 17 -100 17 -46 0 -84 5 -87 11 -18 28 -90 69 -122 69 -27
0 -46 11 -98 60 -69 64 -74 67 -93 48z m215 -174 c-3 -3 -12 -4 -19 -1 -8 3
-5 6 6 6 11 1 17 -2 13 -5z m-254 -121 c3 -16 2 -32 -3 -37 -9 -9 -74 17 -85
34 -8 12 24 29 56 30 21 0 28 -6 32 -27z m-173 8 c0 -15 -56 -51 -80 -51 -28
0 -21 24 8 28 11 2 26 10 32 18 14 16 40 19 40 5z m515 -61 c6 -10 -34 -30
-61 -30 -8 0 -14 9 -14 20 0 16 7 20 34 20 19 0 38 -5 41 -10z m-810 -80 c9
-15 -14 -40 -36 -40 -20 0 -23 8 -13 34 7 18 39 22 49 6z m812 -26 c-3 -4 -14
-3 -24 0 -15 6 -15 8 -3 16 16 10 39 -4 27 -16z m-364 -52 c-20 -27 -63 -43
-63 -23 0 12 72 61 79 55 3 -3 -4 -17 -16 -32z m115 -34 c18 -18 14 -36 -9
-43 -30 -10 -57 18 -39 39 15 19 32 20 48 4z m265 -53 c-4 -15 -36 -12 -41 3
-3 9 3 13 19 10 13 -1 23 -7 22 -13z m0 -80 c4 -8 2 -17 -3 -20 -13 -8 -40 6
-40 21 0 19 36 18 43 -1z m-3 -80 c10 -12 10 -19 1 -28 -14 -14 -44 2 -49 27
-4 21 31 22 48 1z m-270 -39 c0 -46 -29 -108 -81 -172 -75 -91 -79 -66 -8 51
25 41 46 92 56 133 9 36 33 27 33 -12z m258 -49 c2 -10 -3 -17 -11 -17 -18 0
-39 24 -30 34 12 12 38 2 41 -17z m-18 -77 c0 -5 -4 -10 -10 -10 -5 0 -10 5
-10 10 0 6 5 10 10 10 6 0 10 -4 10 -10z m-1240 -160 c0 -5 -7 -10 -15 -10 -8
0 -15 5 -15 10 0 6 7 10 15 10 8 0 15 -4 15 -10z m734 -100 c50 -19 27 -30
-59 -30 -86 0 -107 10 -57 28 36 14 84 14 116 2z m-874 -41 c0 -16 -50 -89
-61 -89 -16 0 0 62 24 87 19 21 37 22 37 2z m114 -35 c8 -3 34 -31 57 -62 23
-32 62 -75 87 -98 29 -26 43 -45 38 -53 -6 -8 -12 -9 -20 -2 -28 23 -144 53
-212 54 -58 2 -76 -2 -93 -17 -40 -36 -21 5 32 69 28 35 60 75 70 89 20 29 19
28 41 20z m128 -31 c23 -21 23 -43 -1 -43 -19 0 -31 18 -31 46 0 18 9 18 32
-3z m238 -66 c0 -8 -9 -25 -21 -38 -11 -13 -29 -35 -40 -49 -15 -20 -18 -22
-19 -7 0 20 17 52 44 85 22 25 36 28 36 9z m690 -241 c0 -22 33 -118 50 -147
19 -33 79 -108 103 -128 9 -9 17 -19 17 -23 0 -30 -75 32 -129 107 -39 53 -78
162 -68 189 8 20 27 21 27 2z m-937 -32 c37 -18 67 -54 44 -54 -18 0 -67 23
-67 32 0 4 -12 14 -27 22 -26 14 -26 15 -6 16 12 0 37 -7 56 -16z m428 -306
c44 -57 133 -151 224 -238 32 -30 53 -56 47 -58 -19 -6 -143 95 -217 177 -79
86 -120 146 -110 161 9 15 12 14 56 -42z m1573 -310 c-16 -31 -101 -117 -116
-118 -17 0 -7 28 17 50 40 37 83 111 91 155 11 64 19 65 22 3 2 -39 -2 -68
-14 -90z m-874 92 c0 -6 -7 -13 -15 -17 -9 -3 -22 -18 -31 -34 -15 -30 -44
-40 -44 -15 0 23 50 76 71 76 10 0 19 -5 19 -10z m-1210 -80 c0 -11 -4 -20 -9
-20 -14 0 -23 18 -16 30 10 17 25 11 25 -10z m1120 -271 c-26 -54 -42 -83 -57
-100 -5 -8 -13 -26 -17 -41 -7 -30 -26 -38 -26 -11 0 16 66 143 80 153 4 3 10
18 14 34 5 20 10 26 17 19 7 -7 4 -24 -11 -54z m519 29 c13 -35 -19 -125 -40
-113 -10 7 -13 94 -3 119 9 23 33 20 43 -6z m-534 -225 c-3 -16 -9 -45 -12
-66 -6 -43 -22 -44 -36 -3 -7 21 -5 36 9 62 23 42 50 47 39 7z m-90 -168 c-6
-51 -7 -51 -14 -10 -4 22 -4 65 -2 95 l5 55 7 -55 c4 -30 6 -68 4 -85z m155
-503 c0 -16 -109 -114 -121 -109 -9 3 6 24 44 61 55 53 77 66 77 48z m-400
-363 c-6 -10 -17 -19 -25 -19 -19 0 -19 9 1 31 21 23 38 14 24 -12z"/>
<path d="M3893 4058 c-50 -11 -89 -52 -99 -104 -5 -28 -1 -42 20 -74 32 -49
83 -82 187 -121 93 -36 129 -72 129 -127 -1 -95 -90 -146 -215 -123 -80 15
-142 100 -103 139 7 7 20 12 29 12 39 0 51 72 14 87 -50 19 -105 -41 -105
-115 0 -121 147 -203 291 -161 148 43 208 210 109 306 -17 17 -82 55 -145 86
-70 34 -120 66 -131 82 -15 23 -15 27 0 50 34 51 167 20 225 -52 36 -46 54
-44 45 5 -16 85 -18 87 -60 88 -21 1 -55 6 -74 11 -19 6 -44 12 -55 15 -11 3
-39 1 -62 -4z"/>
<path d="M5070 4051 c-112 -23 -176 -115 -119 -172 17 -17 29 -20 62 -16 37 5
67 27 67 48 0 4 -15 5 -33 2 -24 -3 -37 0 -47 12 -18 21 -5 43 39 69 30 17 38
18 123 5 100 -15 113 -25 79 -67 -11 -15 -30 -45 -42 -67 -26 -48 -58 -85 -75
-85 -23 0 -26 -21 -5 -36 17 -12 19 -19 10 -42 -20 -52 -91 -152 -124 -172
-74 -46 -180 -12 -205 66 -14 41 -1 64 36 64 25 0 54 24 54 45 0 35 -63 59
-97 37 -17 -10 -43 -76 -43 -106 0 -48 37 -114 80 -142 63 -42 139 -45 214 -8
72 35 117 85 162 179 33 68 39 74 77 84 24 6 48 20 55 32 13 21 13 21 -22 15
-29 -6 -38 -3 -43 10 -8 22 50 139 79 157 13 8 52 17 88 21 70 7 162 37 168
55 5 14 -31 14 -122 1 -51 -8 -101 -6 -198 5 -139 16 -163 17 -218 6z"/>
<path d="M7135 1808 c-26 -57 -57 -123 -68 -148 -10 -25 -39 -87 -64 -138 -65
-136 -84 -184 -77 -191 7 -8 1451 -9 1464 -1 8 5 106 205 141 289 8 19 40 88
72 153 31 65 57 123 57 128 0 6 -267 10 -738 10 l-739 0 -48 -102z"/>
<path d="M1028 1867 c-26 -7 -58 -22 -73 -35 -31 -27 -107 -189 -100 -212 15
-48 29 -51 280 -54 134 -2 241 -8 247 -14 11 -11 -13 -75 -33 -88 -8 -5 -142
-11 -299 -14 l-284 -5 -23 -34 c-13 -19 -22 -39 -20 -45 3 -8 106 -11 328 -10
402 2 381 -5 452 139 44 89 47 100 36 127 -6 15 -17 32 -23 36 -6 4 -119 9
-251 12 -233 5 -240 6 -243 26 -2 11 7 32 18 47 l21 27 285 0 284 0 20 33 c11
17 20 41 20 53 0 20 -3 21 -297 21 -194 1 -314 -3 -345 -10z"/>
<path d="M1835 1866 c-72 -20 -84 -33 -146 -159 -95 -192 -130 -277 -124 -298
4 -11 18 -27 31 -36 22 -14 67 -16 335 -17 l310 -1 20 31 c23 38 24 60 3 68
-9 3 -132 6 -274 6 -194 0 -259 3 -262 12 -5 14 106 254 130 281 14 15 41 17
299 17 l283 0 20 33 c11 17 20 42 20 54 l0 23 -302 -1 c-196 -1 -317 -5 -343
-13z"/>
<path d="M2554 1863 c-9 -9 -25 -36 -35 -60 -10 -23 -40 -89 -67 -145 -60
-127 -102 -225 -102 -242 0 -7 10 -22 23 -33 20 -19 39 -21 202 -27 243 -8
416 3 452 30 39 28 250 452 239 481 -6 15 -78 16 -109 1 -17 -9 -49 -72 -147
-288 -24 -52 -52 -103 -63 -112 -17 -16 -43 -18 -217 -18 -164 0 -200 3 -210
15 -14 16 -8 31 109 277 51 106 58 127 44 129 -56 9 -105 6 -119 -8z"/>
<path d="M3427 1862 c-8 -10 -33 -55 -55 -102 -22 -47 -72 -152 -111 -233 -39
-81 -71 -152 -71 -156 0 -15 31 -17 345 -15 265 1 315 3 342 17 35 19 59 50
91 117 11 25 48 103 81 174 64 134 67 146 51 176 -19 35 -66 40 -367 39 -259
-1 -293 -3 -306 -17z m518 -102 c3 -5 -3 -31 -14 -56 -12 -26 -21 -57 -21 -69
0 -12 -9 -30 -19 -39 -11 -10 -29 -37 -40 -61 -36 -77 -28 -75 -256 -75 -171
0 -204 2 -209 15 -7 20 -3 31 71 173 l65 122 208 0 c127 0 211 -4 215 -10z"/>
<path d="M4244 1865 c-23 -17 -251 -492 -241 -502 4 -3 163 -7 354 -8 321 -1
348 0 365 17 25 25 34 68 17 79 -8 5 -132 9 -277 9 -291 0 -291 0 -255 62 l19
33 214 5 214 5 23 34 c13 19 23 42 23 52 0 18 -12 19 -198 19 -135 0 -202 4
-209 11 -9 9 -7 21 8 50 l19 39 283 0 c155 0 287 4 292 8 18 13 45 61 45 80 0
18 -16 18 -341 18 -218 0 -346 -4 -355 -11z"/>
<path d="M5036 1857 c-33 -53 -226 -463 -226 -482 0 -15 88 -27 111 -15 8 5
34 50 58 99 23 50 50 95 61 101 10 5 47 10 81 10 l63 0 106 -110 105 -110 78
0 c63 0 77 3 77 15 0 9 -37 51 -82 95 -72 70 -80 81 -68 95 12 14 25 16 76 10
102 -11 159 22 201 115 46 101 54 130 42 152 -22 41 -59 45 -372 46 -296 1
-297 1 -311 -21z m520 -119 c-13 -67 -16 -68 -248 -68 -159 0 -208 3 -209 13
-2 23 3 40 18 64 15 23 16 23 230 23 l216 0 -7 -32z"/>
<path d="M5907 1868 c-10 -5 -34 -44 -56 -86 -21 -43 -43 -87 -49 -97 -28 -49
-142 -298 -142 -310 0 -19 18 -23 75 -16 48 6 51 8 75 56 85 167 211 445 206
454 -8 12 -86 12 -109 -1z"/>
<path d="M6247 1866 c-59 -16 -82 -37 -112 -101 -13 -27 -60 -126 -104 -219
-45 -94 -79 -176 -77 -183 4 -10 20 -12 57 -8 28 3 55 7 60 11 5 3 23 32 39
64 17 33 39 64 50 70 28 15 394 11 416 -4 14 -11 13 -18 -12 -69 -15 -31 -25
-59 -21 -63 3 -4 27 -8 53 -11 38 -3 52 1 71 19 12 12 23 25 23 29 0 8 31 76
129 282 28 59 51 117 51 127 0 32 -37 57 -93 64 -95 11 -479 5 -530 -8z m462
-100 c17 -21 -49 -151 -81 -160 -30 -8 -381 -8 -402 0 -23 9 -20 37 14 104 20
41 36 60 52 63 13 2 109 5 214 6 154 1 194 -2 203 -13z"/>
<path d="M600 1148 c-11 -18 -20 -37 -20 -42 0 -5 -9 -27 -19 -50 -19 -40 -29
-63 -69 -156 -20 -47 -66 -148 -109 -238 -14 -29 -23 -55 -20 -58 6 -7 2306
-6 2317 1 5 3 16 20 24 38 8 18 28 63 45 100 17 38 31 71 31 74 0 2 14 34 30
70 17 35 30 67 30 69 0 6 67 152 80 176 29 51 99 48 -1145 48 l-1155 0 -20
-32z"/>
<path d="M3216 1138 c-9 -5 -16 -13 -16 -18 0 -4 -27 -64 -59 -132 -108 -226
-161 -340 -161 -349 0 -5 27 -9 61 -9 l60 0 41 88 c61 133 34 122 304 122
l233 0 20 26 c12 15 21 35 21 45 0 18 -12 19 -214 19 -118 0 -221 3 -230 6
-23 9 -19 43 10 81 l25 33 274 0 274 0 21 30 c12 17 20 38 18 48 -3 16 -28 17
-335 18 -182 0 -338 -3 -347 -8z"/>
<path d="M4019 1129 c-11 -11 -19 -23 -19 -28 0 -5 -27 -67 -61 -138 -33 -70
-72 -154 -85 -185 -13 -32 -33 -74 -44 -93 -11 -20 -18 -40 -15 -46 4 -5 147
-9 350 -9 l343 0 22 36 c37 65 41 64 -260 64 l-270 0 0 23 c0 12 11 35 24 51
l23 30 194 -2 c107 -1 199 1 205 6 18 12 46 73 40 88 -4 11 -41 14 -195 14
-211 0 -219 3 -183 64 l18 31 240 6 c131 4 258 7 282 8 36 1 45 6 62 34 40 64
50 62 -319 63 -313 1 -335 0 -352 -17z"/>
<path d="M4827 1141 c-17 -6 -124 -216 -172 -336 -15 -38 -36 -87 -46 -107
-32 -62 -27 -69 39 -66 l57 3 47 94 c25 52 52 98 60 102 7 5 42 9 78 9 l65 0
99 -105 99 -105 78 0 c44 0 79 3 79 8 0 4 -34 42 -76 86 -43 45 -74 86 -72 95
3 13 21 17 88 21 114 7 140 25 191 137 22 46 39 91 39 101 0 25 -36 62 -63 64
-63 4 -576 4 -590 -1z m492 -100 c13 -8 12 -15 -4 -50 -11 -25 -26 -43 -39
-46 -12 -2 -105 -6 -207 -9 -217 -7 -224 -4 -190 62 11 22 26 42 33 45 23 9
393 7 407 -2z"/>
<path d="M5631 1140 c-12 -7 -83 -155 -163 -340 -23 -52 -47 -104 -55 -115
-28 -41 -18 -55 41 -55 63 0 75 12 116 113 36 88 48 97 130 97 l68 0 98 -105
97 -105 79 0 c43 0 78 3 78 8 0 4 -34 43 -75 87 -42 44 -74 87 -73 95 3 11 23
16 90 20 111 6 130 20 185 130 51 101 54 132 16 157 -24 16 -58 18 -324 19
-164 1 -302 -2 -308 -6z m499 -100 c12 -8 11 -15 -7 -54 l-22 -45 -198 -3
c-109 -2 -204 -1 -210 1 -26 7 -3 78 32 103 15 11 387 9 405 -2z"/>
<path d="M6511 1133 c-54 -18 -67 -39 -161 -248 -5 -11 -32 -69 -60 -129 -29
-63 -47 -113 -42 -118 5 -5 33 -8 62 -6 l54 3 31 63 c17 35 37 67 45 72 16 11
379 14 404 4 22 -8 20 -27 -9 -84 -18 -35 -22 -51 -13 -56 18 -11 101 -5 115
9 12 12 184 382 197 424 5 15 0 29 -18 49 l-24 29 -273 0 c-190 0 -283 -3
-308 -12z m453 -89 c22 -8 20 -23 -7 -83 -41 -86 -25 -81 -254 -81 -165 0
-205 3 -209 14 -7 18 50 132 73 145 19 11 370 15 397 5z"/>
<path d="M7313 1135 c-21 -16 -234 -488 -224 -498 14 -14 113 -4 123 13 4 8
26 54 49 103 l40 87 75 0 c86 0 69 11 205 -138 l66 -72 77 0 c42 0 76 4 76 8
0 5 -34 45 -76 90 -48 52 -74 88 -70 97 4 11 23 15 82 15 101 0 145 23 178 94
63 135 68 162 35 192 -19 17 -41 19 -321 19 -188 0 -306 -4 -315 -10z m503
-100 c4 -9 1 -29 -6 -46 -23 -56 -36 -58 -243 -54 -104 3 -193 7 -198 11 -16
9 -10 36 17 71 l25 33 200 0 c169 0 201 -2 205 -15z"/>
<path d="M8150 1123 c-11 -14 -20 -30 -20 -34 0 -5 -20 -52 -45 -105 -25 -52
-45 -97 -45 -99 0 -2 -25 -57 -55 -121 -31 -65 -52 -121 -48 -125 11 -11 96
-15 110 -6 6 4 30 51 53 104 24 54 62 139 86 188 106 226 104 215 28 220 -37
2 -47 -1 -64 -22z"/>
</g>
</svg>
